# xmcd CD database file generated by Grip 3.2.0
# 
# Track frame offsets:
#       180
#       23284
#       52059
#       80781
#       104506
#       135121
#       156045
#       179673
#       205306
#       226161
#       250479
# 
# Disc length: 3656 seconds
# 
# Revision: 5
# Processed by: cddbd v1.5.2PL0 Copyright (c) Steve Scherf et al.
# Submitted via: Grip 3.2.0
# 
DISCID=8d0e460b
DTITLE=Salon Oriental - Volume 1
DYEAR=2002
DGENRE=New Age
TTITLE0=Simon Greige - Oriental Girl
TTITLE1=Radia - Amran Cafe
TTITLE2=Karmix - Neon
TTITLE3=Page One - Cashmir (Act 2)
TTITLE4=Malik - Deep Throat
TTITLE5=Karkhabuz - Mandol
TTITLE6=Maurice El Medioni - Laissez Moi Me Griser (Part One)
TTITLE7=Ultimate K feat. Deise Mikhail - K Dance
TTITLE8=Anoma - Jewellery Case
TTITLE9=Over Reality - Funky O
TTITLE10=Gnawa Diffusion - Istikhbar (Prelude) and Ombre Elle
EXTD=
EXTT0=
EXTT1=
EXTT2=
EXTT3=
EXTT4=
EXTT5=
EXTT6=
EXTT7=
EXTT8=
EXTT9=
EXTT10=
PLAYORDER=
